<mxfile host="app.diagrams.net" modified="2023-10-18T21:16:38.807Z" agent="Mozilla/5.0 (Macintosh; Intel Mac OS X 10_15_7) AppleWebKit/605.1.15 (KHTML, like Gecko) Version/17.0 Safari/605.1.15" version="22.0.4" etag="5xEXraIiKQ6co3u3UOcb" type="device" pages="2">
  <diagram id="fc1f3b67-3c9b-b1b3-7705-706421d27264" name="ERD Habit Tracker app">
    <mxGraphModel dx="1194" dy="647" grid="1" gridSize="10" guides="1" tooltips="1" connect="1" arrows="1" fold="1" page="1" pageScale="1" pageWidth="850" pageHeight="1100" math="0" shadow="0">
      <root>
        <mxCell id="0" />
        <mxCell id="1" parent="0" />
        <mxCell id="4cd4486c729dc68b-1" value="Artykuły" style="strokeWidth=2;whiteSpace=wrap;html=1;align=center;fontSize=13;fontFamily=Helvetica;fontColor=#000000;strokeColor=#d79b00;fillColor=#ffe6cc;" parent="1" vertex="1">
          <mxGeometry x="120" y="160" width="70" height="70" as="geometry" />
        </mxCell>
        <mxCell id="4a63a70a29bb4ada-1" value="IDPudelka" style="ellipse;whiteSpace=wrap;html=1;aspect=fixed;fontSize=10;fillColor=#dae8fc;strokeColor=#6c8ebf;" parent="1" vertex="1">
          <mxGeometry x="118" y="95" width="50" height="50" as="geometry" />
        </mxCell>
        <mxCell id="4a63a70a29bb4ada-2" value="IDZamowienia" style="ellipse;whiteSpace=wrap;html=1;aspect=fixed;fontSize=10;fillColor=#dae8fc;strokeColor=#6c8ebf;" parent="1" vertex="1">
          <mxGeometry x="20" y="111" width="80" height="80" as="geometry" />
        </mxCell>
        <mxCell id="4a63a70a29bb4ada-5" value="Zawartość" style="strokeWidth=2;whiteSpace=wrap;html=1;align=center;fontSize=13;fontFamily=Helvetica;fontColor=#000000;strokeColor=#d79b00;fillColor=#ffe6cc;" parent="1" vertex="1">
          <mxGeometry x="341" y="90" width="70" height="70" as="geometry" />
        </mxCell>
        <mxCell id="4a63a70a29bb4ada-6" value="IDPudelka" style="ellipse;whiteSpace=wrap;html=1;aspect=fixed;fontSize=10;fillColor=#dae8fc;strokeColor=#6c8ebf;" parent="1" vertex="1">
          <mxGeometry x="291" y="9" width="50" height="50" as="geometry" />
        </mxCell>
        <mxCell id="5ecfb9fce94ea102-6" value="" style="edgeStyle=none;rounded=0;html=1;startArrow=none;startFill=0;endArrow=none;endFill=0;jettySize=auto;orthogonalLoop=1;strokeColor=#000066;fontSize=13;" parent="1" source="4a63a70a29bb4ada-6" target="4a63a70a29bb4ada-5" edge="1">
          <mxGeometry relative="1" as="geometry" />
        </mxCell>
        <mxCell id="4a63a70a29bb4ada-8" value="IDCzekoladki" style="ellipse;whiteSpace=wrap;html=1;aspect=fixed;fontSize=10;fillColor=#dae8fc;strokeColor=#6c8ebf;" parent="1" vertex="1">
          <mxGeometry x="371" y="8" width="66" height="66" as="geometry" />
        </mxCell>
        <mxCell id="4a63a70a29bb4ada-13" value="Pudelka" style="strokeWidth=2;whiteSpace=wrap;html=1;align=center;fontSize=13;fontFamily=Helvetica;fontColor=#000000;strokeColor=#d79b00;fillColor=#ffe6cc;" parent="1" vertex="1">
          <mxGeometry x="646" y="210" width="70" height="70" as="geometry" />
        </mxCell>
        <mxCell id="4a63a70a29bb4ada-16" value="Klienci" style="strokeWidth=2;whiteSpace=wrap;html=1;align=center;fontSize=13;fontFamily=Helvetica;fontColor=#000000;strokeColor=#d79b00;fillColor=#ffe6cc;" parent="1" vertex="1">
          <mxGeometry x="304" y="589" width="70" height="70" as="geometry" />
        </mxCell>
        <mxCell id="4a63a70a29bb4ada-18" value="" style="shape=rhombus;strokeWidth=2;fontSize=13;perimeter=rhombusPerimeter;whiteSpace=wrap;html=1;align=center;fillColor=#d5e8d4;strokeColor=#82b366;" parent="1" vertex="1">
          <mxGeometry x="259" y="480" width="70" height="70" as="geometry" />
        </mxCell>
        <mxCell id="4a63a70a29bb4ada-19" value="Zamówienia" style="strokeWidth=2;whiteSpace=wrap;html=1;align=center;fontSize=13;fontFamily=Helvetica;fontColor=#000000;strokeColor=#d79b00;fillColor=#ffe6cc;" parent="1" vertex="1">
          <mxGeometry x="120" y="370" width="70" height="70" as="geometry" />
        </mxCell>
        <mxCell id="4a63a70a29bb4ada-20" value="IDZamowienia" style="ellipse;whiteSpace=wrap;html=1;aspect=fixed;fontSize=10;fillColor=#dae8fc;strokeColor=#6c8ebf;" parent="1" vertex="1">
          <mxGeometry x="20" y="384" width="80" height="80" as="geometry" />
        </mxCell>
        <mxCell id="4a63a70a29bb4ada-21" value="DataRealizacji" style="ellipse;whiteSpace=wrap;html=1;aspect=fixed;fontSize=10;fillColor=#dae8fc;strokeColor=#6c8ebf;" parent="1" vertex="1">
          <mxGeometry x="70" y="464" width="73" height="73" as="geometry" />
        </mxCell>
        <mxCell id="4a63a70a29bb4ada-22" value="" style="shape=rhombus;strokeWidth=2;fontSize=13;perimeter=rhombusPerimeter;whiteSpace=wrap;html=1;align=center;fillColor=#d5e8d4;strokeColor=#82b366;" parent="1" vertex="1">
          <mxGeometry x="120" y="265" width="70" height="70" as="geometry" />
        </mxCell>
        <mxCell id="4a63a70a29bb4ada-23" value="" style="shape=rhombus;strokeWidth=2;fontSize=13;perimeter=rhombusPerimeter;whiteSpace=wrap;html=1;align=center;fillColor=#d5e8d4;strokeColor=#82b366;" parent="1" vertex="1">
          <mxGeometry x="367" y="200" width="70" height="70" as="geometry" />
        </mxCell>
        <mxCell id="4a63a70a29bb4ada-44" value="Opis" style="ellipse;whiteSpace=wrap;html=1;aspect=fixed;fontSize=10;fillColor=#dae8fc;strokeColor=#6c8ebf;" parent="1" vertex="1">
          <mxGeometry x="770" y="200" width="55" height="55" as="geometry" />
        </mxCell>
        <mxCell id="4a63a70a29bb4ada-45" value="Cena" style="ellipse;whiteSpace=wrap;html=1;aspect=fixed;fontSize=10;fillColor=#dae8fc;strokeColor=#6c8ebf;" parent="1" vertex="1">
          <mxGeometry x="705" y="121.5" width="49" height="49" as="geometry" />
        </mxCell>
        <mxCell id="4a63a70a29bb4ada-46" style="rounded=0;html=1;endArrow=none;endFill=0;jettySize=auto;orthogonalLoop=1;fontSize=12;" parent="1" source="4a63a70a29bb4ada-13" target="4a63a70a29bb4ada-45" edge="1">
          <mxGeometry relative="1" as="geometry" />
        </mxCell>
        <mxCell id="4a63a70a29bb4ada-48" style="rounded=0;html=1;endArrow=none;endFill=0;jettySize=auto;orthogonalLoop=1;fontSize=12;" parent="1" source="4a63a70a29bb4ada-8" target="4a63a70a29bb4ada-5" edge="1">
          <mxGeometry relative="1" as="geometry" />
        </mxCell>
        <mxCell id="4a63a70a29bb4ada-49" style="rounded=0;html=1;endArrow=none;endFill=0;jettySize=auto;orthogonalLoop=1;fontSize=12;" parent="1" target="4a63a70a29bb4ada-5" edge="1" source="MPCwJ7yLD_B9vMjKTzP1-6">
          <mxGeometry relative="1" as="geometry">
            <mxPoint x="453.4621577996652" y="97.87085356328134" as="sourcePoint" />
          </mxGeometry>
        </mxCell>
        <mxCell id="4a63a70a29bb4ada-51" style="edgeStyle=none;rounded=0;html=1;endArrow=none;endFill=0;jettySize=auto;orthogonalLoop=1;fontSize=12;" parent="1" source="4a63a70a29bb4ada-13" target="4a63a70a29bb4ada-44" edge="1">
          <mxGeometry relative="1" as="geometry" />
        </mxCell>
        <mxCell id="4a63a70a29bb4ada-52" style="edgeStyle=none;rounded=0;html=1;endArrow=none;endFill=0;jettySize=auto;orthogonalLoop=1;fontSize=12;" parent="1" source="4a63a70a29bb4ada-20" target="4a63a70a29bb4ada-19" edge="1">
          <mxGeometry relative="1" as="geometry" />
        </mxCell>
        <mxCell id="4a63a70a29bb4ada-53" style="edgeStyle=none;rounded=0;html=1;endArrow=none;endFill=0;jettySize=auto;orthogonalLoop=1;fontSize=12;" parent="1" source="4a63a70a29bb4ada-21" target="4a63a70a29bb4ada-19" edge="1">
          <mxGeometry relative="1" as="geometry" />
        </mxCell>
        <mxCell id="4a63a70a29bb4ada-54" style="edgeStyle=none;rounded=0;html=1;endArrow=none;endFill=0;jettySize=auto;orthogonalLoop=1;fontSize=12;" parent="1" source="4a63a70a29bb4ada-2" target="4cd4486c729dc68b-1" edge="1">
          <mxGeometry relative="1" as="geometry" />
        </mxCell>
        <mxCell id="4a63a70a29bb4ada-55" style="edgeStyle=none;rounded=0;html=1;endArrow=none;endFill=0;jettySize=auto;orthogonalLoop=1;fontSize=12;" parent="1" source="4a63a70a29bb4ada-1" target="4cd4486c729dc68b-1" edge="1">
          <mxGeometry relative="1" as="geometry" />
        </mxCell>
        <mxCell id="4a63a70a29bb4ada-58" value="IDKlienta" style="ellipse;whiteSpace=wrap;html=1;aspect=fixed;fontSize=10;fillColor=#dae8fc;strokeColor=#6c8ebf;" parent="1" vertex="1">
          <mxGeometry x="392" y="640.75" width="66" height="66" as="geometry" />
        </mxCell>
        <mxCell id="4a63a70a29bb4ada-59" value="Nazwa" style="ellipse;whiteSpace=wrap;html=1;aspect=fixed;fontSize=10;fillColor=#dae8fc;strokeColor=#6c8ebf;" parent="1" vertex="1">
          <mxGeometry x="335" y="696.75" width="49" height="49" as="geometry" />
        </mxCell>
        <mxCell id="4a63a70a29bb4ada-60" value="Ulica" style="ellipse;whiteSpace=wrap;html=1;aspect=fixed;fontSize=10;fillColor=#dae8fc;strokeColor=#6c8ebf;" parent="1" vertex="1">
          <mxGeometry x="269.5" y="676" width="49" height="49" as="geometry" />
        </mxCell>
        <mxCell id="4a63a70a29bb4ada-61" value="Miejscowość" style="ellipse;whiteSpace=wrap;html=1;aspect=fixed;fontSize=9;fillColor=#dae8fc;strokeColor=#6c8ebf;" parent="1" vertex="1">
          <mxGeometry x="199" y="646.75" width="60" height="60" as="geometry" />
        </mxCell>
        <mxCell id="4a63a70a29bb4ada-62" style="rounded=0;html=1;startArrow=none;startFill=0;endArrow=none;endFill=0;jettySize=auto;orthogonalLoop=1;fontSize=10;" parent="1" source="4a63a70a29bb4ada-58" target="4a63a70a29bb4ada-16" edge="1">
          <mxGeometry relative="1" as="geometry" />
        </mxCell>
        <mxCell id="4a63a70a29bb4ada-63" style="edgeStyle=none;rounded=0;html=1;startArrow=none;startFill=0;endArrow=none;endFill=0;jettySize=auto;orthogonalLoop=1;fontSize=10;" parent="1" source="4a63a70a29bb4ada-59" target="4a63a70a29bb4ada-16" edge="1">
          <mxGeometry relative="1" as="geometry" />
        </mxCell>
        <mxCell id="4a63a70a29bb4ada-64" style="edgeStyle=none;rounded=0;html=1;startArrow=none;startFill=0;endArrow=none;endFill=0;jettySize=auto;orthogonalLoop=1;fontSize=10;" parent="1" source="4a63a70a29bb4ada-60" target="4a63a70a29bb4ada-16" edge="1">
          <mxGeometry relative="1" as="geometry" />
        </mxCell>
        <mxCell id="4a63a70a29bb4ada-65" style="edgeStyle=none;rounded=0;html=1;startArrow=none;startFill=0;endArrow=none;endFill=0;jettySize=auto;orthogonalLoop=1;fontSize=10;" parent="1" source="4a63a70a29bb4ada-61" target="4a63a70a29bb4ada-16" edge="1">
          <mxGeometry relative="1" as="geometry">
            <mxPoint x="332.71546484833766" y="677.0275131278759" as="sourcePoint" />
          </mxGeometry>
        </mxCell>
        <mxCell id="4a63a70a29bb4ada-7" value="Sztuk" style="ellipse;whiteSpace=wrap;html=1;aspect=fixed;fontSize=10;fillColor=#dae8fc;strokeColor=#6c8ebf;dashed=1;" parent="1" vertex="1">
          <mxGeometry x="190" y="94" width="50" height="50" as="geometry" />
        </mxCell>
        <mxCell id="4a63a70a29bb4ada-11" style="rounded=0;html=1;startArrow=none;startFill=0;endArrow=none;endFill=0;jettySize=auto;orthogonalLoop=1;fontSize=10;" parent="1" source="4a63a70a29bb4ada-7" target="4cd4486c729dc68b-1" edge="1">
          <mxGeometry relative="1" as="geometry" />
        </mxCell>
        <mxCell id="113bda5a66023eaa-1" value="Kod" style="ellipse;whiteSpace=wrap;html=1;aspect=fixed;fontSize=9;fillColor=#dae8fc;strokeColor=#6c8ebf;" parent="1" vertex="1">
          <mxGeometry x="181" y="589" width="49" height="49" as="geometry" />
        </mxCell>
        <mxCell id="113bda5a66023eaa-2" style="rounded=0;html=1;startArrow=none;startFill=0;endArrow=none;endFill=0;jettySize=auto;orthogonalLoop=1;strokeColor=#000066;fontSize=13;" parent="1" source="113bda5a66023eaa-1" target="4a63a70a29bb4ada-16" edge="1">
          <mxGeometry relative="1" as="geometry" />
        </mxCell>
        <mxCell id="5ecfb9fce94ea102-1" value="Nazwa" style="ellipse;whiteSpace=wrap;html=1;aspect=fixed;fontSize=10;fillColor=#dae8fc;strokeColor=#6c8ebf;" parent="1" vertex="1">
          <mxGeometry x="671" y="307.25" width="49" height="49" as="geometry" />
        </mxCell>
        <mxCell id="5ecfb9fce94ea102-2" style="rounded=0;html=1;startArrow=none;startFill=0;endArrow=none;endFill=0;jettySize=auto;orthogonalLoop=1;strokeColor=#000066;fontSize=13;" parent="1" source="5ecfb9fce94ea102-1" target="4a63a70a29bb4ada-13" edge="1">
          <mxGeometry relative="1" as="geometry" />
        </mxCell>
        <mxCell id="5ecfb9fce94ea102-7" value="Telefon" style="ellipse;whiteSpace=wrap;html=1;aspect=fixed;fontSize=9;fillColor=#dae8fc;strokeColor=#6c8ebf;" parent="1" vertex="1">
          <mxGeometry x="230" y="545.5" width="49" height="49" as="geometry" />
        </mxCell>
        <mxCell id="5ecfb9fce94ea102-8" style="edgeStyle=none;rounded=0;html=1;startArrow=none;startFill=0;endArrow=none;endFill=0;jettySize=auto;orthogonalLoop=1;strokeColor=#000066;fontSize=13;" parent="1" source="5ecfb9fce94ea102-7" target="4a63a70a29bb4ada-16" edge="1">
          <mxGeometry relative="1" as="geometry">
            <mxPoint x="257.0584171565067" y="632.9413486624971" as="sourcePoint" />
          </mxGeometry>
        </mxCell>
        <mxCell id="5ecfb9fce94ea102-9" value="IDPudelka" style="ellipse;whiteSpace=wrap;html=1;aspect=fixed;fontSize=10;fillColor=#dae8fc;strokeColor=#6c8ebf;" parent="1" vertex="1">
          <mxGeometry x="590" y="280" width="49" height="49" as="geometry" />
        </mxCell>
        <mxCell id="5ecfb9fce94ea102-10" style="edgeStyle=none;rounded=0;html=1;startArrow=none;startFill=0;endArrow=none;endFill=0;jettySize=auto;orthogonalLoop=1;strokeColor=#000066;fontSize=13;" parent="1" source="5ecfb9fce94ea102-9" target="4a63a70a29bb4ada-13" edge="1">
          <mxGeometry relative="1" as="geometry" />
        </mxCell>
        <mxCell id="MPCwJ7yLD_B9vMjKTzP1-1" value="IDKlienta" style="ellipse;whiteSpace=wrap;html=1;aspect=fixed;fontSize=10;fillColor=#dae8fc;strokeColor=#6c8ebf;" vertex="1" parent="1">
          <mxGeometry x="160" y="463" width="57" height="57" as="geometry" />
        </mxCell>
        <mxCell id="MPCwJ7yLD_B9vMjKTzP1-2" style="edgeStyle=none;rounded=0;html=1;endArrow=none;endFill=0;jettySize=auto;orthogonalLoop=1;fontSize=12;exitX=0.5;exitY=0;exitDx=0;exitDy=0;entryX=0.6;entryY=1;entryDx=0;entryDy=0;entryPerimeter=0;" edge="1" parent="1" source="MPCwJ7yLD_B9vMjKTzP1-1" target="4a63a70a29bb4ada-19">
          <mxGeometry relative="1" as="geometry">
            <mxPoint x="139" y="469" as="sourcePoint" />
            <mxPoint x="148" y="450" as="targetPoint" />
          </mxGeometry>
        </mxCell>
        <mxCell id="MPCwJ7yLD_B9vMjKTzP1-4" value="Stan" style="ellipse;whiteSpace=wrap;html=1;aspect=fixed;fontSize=10;fillColor=#dae8fc;strokeColor=#6c8ebf;" vertex="1" parent="1">
          <mxGeometry x="626" y="139" width="50" height="50" as="geometry" />
        </mxCell>
        <mxCell id="MPCwJ7yLD_B9vMjKTzP1-5" style="rounded=0;html=1;endArrow=none;endFill=0;jettySize=auto;orthogonalLoop=1;fontSize=12;exitX=0.5;exitY=1;exitDx=0;exitDy=0;entryX=0.25;entryY=0;entryDx=0;entryDy=0;" edge="1" parent="1" source="MPCwJ7yLD_B9vMjKTzP1-4" target="4a63a70a29bb4ada-13">
          <mxGeometry relative="1" as="geometry">
            <mxPoint x="723" y="220" as="sourcePoint" />
            <mxPoint x="734" y="209" as="targetPoint" />
          </mxGeometry>
        </mxCell>
        <mxCell id="MPCwJ7yLD_B9vMjKTzP1-6" value="&amp;nbsp;HabitID&amp;nbsp;" style="ellipse;whiteSpace=wrap;html=1;aspect=fixed;fontSize=10;fillColor=#dae8fc;strokeColor=#6c8ebf;" vertex="1" parent="1">
          <mxGeometry x="451" y="59" width="59" height="59" as="geometry" />
        </mxCell>
        <mxCell id="MPCwJ7yLD_B9vMjKTzP1-7" value="Czekoladki" style="strokeWidth=2;whiteSpace=wrap;html=1;align=center;fontSize=13;fontFamily=Helvetica;fontColor=#000000;strokeColor=#d79b00;fillColor=#ffe6cc;" vertex="1" parent="1">
          <mxGeometry x="606" y="549.75" width="70" height="70" as="geometry" />
        </mxCell>
        <mxCell id="MPCwJ7yLD_B9vMjKTzP1-8" value="RodzajCzekolady" style="ellipse;whiteSpace=wrap;html=1;aspect=fixed;fontSize=10;fillColor=#dae8fc;strokeColor=#6c8ebf;" vertex="1" parent="1">
          <mxGeometry x="720" y="563.75" width="83" height="83" as="geometry" />
        </mxCell>
        <mxCell id="MPCwJ7yLD_B9vMjKTzP1-9" value="Nazwa" style="ellipse;whiteSpace=wrap;html=1;aspect=fixed;fontSize=10;fillColor=#dae8fc;strokeColor=#6c8ebf;" vertex="1" parent="1">
          <mxGeometry x="639" y="471" width="49" height="49" as="geometry" />
        </mxCell>
        <mxCell id="MPCwJ7yLD_B9vMjKTzP1-10" style="rounded=0;html=1;endArrow=none;endFill=0;jettySize=auto;orthogonalLoop=1;fontSize=12;" edge="1" source="MPCwJ7yLD_B9vMjKTzP1-7" target="MPCwJ7yLD_B9vMjKTzP1-9" parent="1">
          <mxGeometry relative="1" as="geometry" />
        </mxCell>
        <mxCell id="MPCwJ7yLD_B9vMjKTzP1-11" style="edgeStyle=none;rounded=0;html=1;endArrow=none;endFill=0;jettySize=auto;orthogonalLoop=1;fontSize=12;" edge="1" source="MPCwJ7yLD_B9vMjKTzP1-7" target="MPCwJ7yLD_B9vMjKTzP1-8" parent="1">
          <mxGeometry relative="1" as="geometry" />
        </mxCell>
        <mxCell id="MPCwJ7yLD_B9vMjKTzP1-12" value="RodzajOrzechow" style="ellipse;whiteSpace=wrap;html=1;aspect=fixed;fontSize=10;fillColor=#dae8fc;strokeColor=#6c8ebf;" vertex="1" parent="1">
          <mxGeometry x="700" y="659" width="83" height="83" as="geometry" />
        </mxCell>
        <mxCell id="MPCwJ7yLD_B9vMjKTzP1-13" style="rounded=0;html=1;startArrow=none;startFill=0;endArrow=none;endFill=0;jettySize=auto;orthogonalLoop=1;strokeColor=#000066;fontSize=13;" edge="1" source="MPCwJ7yLD_B9vMjKTzP1-12" target="MPCwJ7yLD_B9vMjKTzP1-7" parent="1">
          <mxGeometry relative="1" as="geometry" />
        </mxCell>
        <mxCell id="MPCwJ7yLD_B9vMjKTzP1-14" value="RodzajNadzienia" style="ellipse;whiteSpace=wrap;html=1;aspect=fixed;fontSize=10;fillColor=#dae8fc;strokeColor=#6c8ebf;" vertex="1" parent="1">
          <mxGeometry x="599" y="690" width="84" height="84" as="geometry" />
        </mxCell>
        <mxCell id="MPCwJ7yLD_B9vMjKTzP1-15" style="edgeStyle=none;rounded=0;html=1;startArrow=none;startFill=0;endArrow=none;endFill=0;jettySize=auto;orthogonalLoop=1;strokeColor=#000066;fontSize=13;" edge="1" source="MPCwJ7yLD_B9vMjKTzP1-14" target="MPCwJ7yLD_B9vMjKTzP1-7" parent="1">
          <mxGeometry relative="1" as="geometry" />
        </mxCell>
        <mxCell id="MPCwJ7yLD_B9vMjKTzP1-16" value="IDCzekoladki" style="ellipse;whiteSpace=wrap;html=1;aspect=fixed;fontSize=10;fillColor=#dae8fc;strokeColor=#6c8ebf;" vertex="1" parent="1">
          <mxGeometry x="540" y="450" width="70" height="70" as="geometry" />
        </mxCell>
        <mxCell id="MPCwJ7yLD_B9vMjKTzP1-17" style="rounded=0;html=1;endArrow=none;endFill=0;jettySize=auto;orthogonalLoop=1;fontSize=12;exitX=0.729;exitY=0.943;exitDx=0;exitDy=0;entryX=0.25;entryY=0;entryDx=0;entryDy=0;exitPerimeter=0;" edge="1" source="MPCwJ7yLD_B9vMjKTzP1-16" target="MPCwJ7yLD_B9vMjKTzP1-7" parent="1">
          <mxGeometry relative="1" as="geometry">
            <mxPoint x="683" y="559.75" as="sourcePoint" />
            <mxPoint x="694" y="548.75" as="targetPoint" />
          </mxGeometry>
        </mxCell>
        <mxCell id="MPCwJ7yLD_B9vMjKTzP1-18" value="Opis" style="ellipse;whiteSpace=wrap;html=1;aspect=fixed;fontSize=10;fillColor=#dae8fc;strokeColor=#6c8ebf;" vertex="1" parent="1">
          <mxGeometry x="540" y="646.75" width="50" height="50" as="geometry" />
        </mxCell>
        <mxCell id="MPCwJ7yLD_B9vMjKTzP1-19" value="Masa" style="ellipse;whiteSpace=wrap;html=1;aspect=fixed;fontSize=10;fillColor=#dae8fc;strokeColor=#6c8ebf;" vertex="1" parent="1">
          <mxGeometry x="510" y="520" width="50" height="50" as="geometry" />
        </mxCell>
        <mxCell id="MPCwJ7yLD_B9vMjKTzP1-20" value="Koszt" style="ellipse;whiteSpace=wrap;html=1;aspect=fixed;fontSize=10;fillColor=#dae8fc;strokeColor=#6c8ebf;" vertex="1" parent="1">
          <mxGeometry x="510" y="596.75" width="50" height="50" as="geometry" />
        </mxCell>
        <mxCell id="MPCwJ7yLD_B9vMjKTzP1-21" style="edgeStyle=none;rounded=0;html=1;startArrow=none;startFill=0;endArrow=none;endFill=0;jettySize=auto;orthogonalLoop=1;strokeColor=#000066;fontSize=13;exitX=0.5;exitY=0;exitDx=0;exitDy=0;" edge="1" parent="1" source="MPCwJ7yLD_B9vMjKTzP1-18" target="MPCwJ7yLD_B9vMjKTzP1-7">
          <mxGeometry relative="1" as="geometry">
            <mxPoint x="712" y="647.75" as="sourcePoint" />
            <mxPoint x="686" y="625.75" as="targetPoint" />
          </mxGeometry>
        </mxCell>
        <mxCell id="MPCwJ7yLD_B9vMjKTzP1-22" style="edgeStyle=none;rounded=0;html=1;startArrow=none;startFill=0;endArrow=none;endFill=0;jettySize=auto;orthogonalLoop=1;strokeColor=#000066;fontSize=13;entryX=1;entryY=0;entryDx=0;entryDy=0;" edge="1" parent="1" source="MPCwJ7yLD_B9vMjKTzP1-7" target="MPCwJ7yLD_B9vMjKTzP1-20">
          <mxGeometry relative="1" as="geometry">
            <mxPoint x="661" y="652.75" as="sourcePoint" />
            <mxPoint x="657" y="629.75" as="targetPoint" />
          </mxGeometry>
        </mxCell>
        <mxCell id="MPCwJ7yLD_B9vMjKTzP1-23" style="edgeStyle=none;rounded=0;html=1;startArrow=none;startFill=0;endArrow=none;endFill=0;jettySize=auto;orthogonalLoop=1;strokeColor=#000066;fontSize=13;entryX=0;entryY=0.5;entryDx=0;entryDy=0;" edge="1" parent="1" source="MPCwJ7yLD_B9vMjKTzP1-19" target="MPCwJ7yLD_B9vMjKTzP1-7">
          <mxGeometry relative="1" as="geometry">
            <mxPoint x="616" y="623.75" as="sourcePoint" />
            <mxPoint x="589" y="645.75" as="targetPoint" />
          </mxGeometry>
        </mxCell>
        <mxCell id="aOL_-I7GqVc6X18CiJJr-2" value="" style="shape=rhombus;strokeWidth=2;fontSize=13;perimeter=rhombusPerimeter;whiteSpace=wrap;html=1;align=center;fillColor=#d5e8d4;strokeColor=#82b366;" vertex="1" parent="1">
          <mxGeometry x="510" y="116" width="70" height="70" as="geometry" />
        </mxCell>
        <mxCell id="Xw2-hug8Pxv_mT1WqAIy-1" value="" style="shape=rhombus;strokeWidth=2;fontSize=13;perimeter=rhombusPerimeter;whiteSpace=wrap;html=1;align=center;fillColor=#d5e8d4;strokeColor=#82b366;" vertex="1" parent="1">
          <mxGeometry x="606" y="356.25" width="70" height="70" as="geometry" />
        </mxCell>
        <mxCell id="VTE8bp56okEFZ58WYxbf-1" value="" style="edgeStyle=entityRelationEdgeStyle;fontSize=12;html=1;endArrow=ERoneToMany;rounded=0;" edge="1" parent="1" source="Xw2-hug8Pxv_mT1WqAIy-1" target="MPCwJ7yLD_B9vMjKTzP1-7">
          <mxGeometry width="100" height="100" relative="1" as="geometry">
            <mxPoint x="460" y="500" as="sourcePoint" />
            <mxPoint x="560" y="400" as="targetPoint" />
          </mxGeometry>
        </mxCell>
        <mxCell id="hBymNznuedQNxJTwgFiC-2" value="" style="edgeStyle=entityRelationEdgeStyle;fontSize=12;html=1;endArrow=ERoneToMany;rounded=0;" edge="1" parent="1" source="aOL_-I7GqVc6X18CiJJr-2" target="4a63a70a29bb4ada-13">
          <mxGeometry width="100" height="100" relative="1" as="geometry">
            <mxPoint x="460" y="440" as="sourcePoint" />
            <mxPoint x="560" y="340" as="targetPoint" />
          </mxGeometry>
        </mxCell>
        <mxCell id="Ceesg_GmXeRT1S85pAZ0-1" value="" style="endArrow=none;html=1;rounded=0;" edge="1" parent="1" source="Xw2-hug8Pxv_mT1WqAIy-1" target="4a63a70a29bb4ada-13">
          <mxGeometry relative="1" as="geometry">
            <mxPoint x="460" y="390.75" as="sourcePoint" />
            <mxPoint x="620" y="390.75" as="targetPoint" />
          </mxGeometry>
        </mxCell>
        <mxCell id="Ceesg_GmXeRT1S85pAZ0-2" value="" style="endArrow=none;html=1;rounded=0;" edge="1" parent="1" source="4a63a70a29bb4ada-5" target="aOL_-I7GqVc6X18CiJJr-2">
          <mxGeometry relative="1" as="geometry">
            <mxPoint x="420" y="350" as="sourcePoint" />
            <mxPoint x="580" y="350" as="targetPoint" />
          </mxGeometry>
        </mxCell>
        <mxCell id="vcUfsQGqsyV3YP14cyqv-1" value="" style="edgeStyle=entityRelationEdgeStyle;fontSize=12;html=1;endArrow=ERoneToMany;rounded=0;" edge="1" parent="1" source="4a63a70a29bb4ada-16" target="4a63a70a29bb4ada-18">
          <mxGeometry width="100" height="100" relative="1" as="geometry">
            <mxPoint x="450" y="470" as="sourcePoint" />
            <mxPoint x="550" y="370" as="targetPoint" />
            <Array as="points">
              <mxPoint x="330" y="570" />
              <mxPoint x="320" y="570" />
            </Array>
          </mxGeometry>
        </mxCell>
        <mxCell id="vcUfsQGqsyV3YP14cyqv-2" value="" style="endArrow=none;html=1;rounded=0;" edge="1" parent="1" source="4a63a70a29bb4ada-18" target="4a63a70a29bb4ada-19">
          <mxGeometry relative="1" as="geometry">
            <mxPoint x="420" y="520" as="sourcePoint" />
            <mxPoint x="580" y="520" as="targetPoint" />
          </mxGeometry>
        </mxCell>
        <mxCell id="glO0-1FQmoA_M5R7XoPx-1" value="" style="edgeStyle=entityRelationEdgeStyle;fontSize=12;html=1;endArrow=ERoneToMany;rounded=0;" edge="1" parent="1" source="4a63a70a29bb4ada-23" target="4cd4486c729dc68b-1">
          <mxGeometry width="100" height="100" relative="1" as="geometry">
            <mxPoint x="460" y="300" as="sourcePoint" />
            <mxPoint x="560" y="200" as="targetPoint" />
          </mxGeometry>
        </mxCell>
        <mxCell id="glO0-1FQmoA_M5R7XoPx-2" value="" style="endArrow=none;html=1;rounded=0;" edge="1" parent="1" source="4a63a70a29bb4ada-23" target="4a63a70a29bb4ada-13">
          <mxGeometry relative="1" as="geometry">
            <mxPoint x="430" y="250" as="sourcePoint" />
            <mxPoint x="590" y="250" as="targetPoint" />
          </mxGeometry>
        </mxCell>
        <mxCell id="glO0-1FQmoA_M5R7XoPx-4" value="" style="edgeStyle=entityRelationEdgeStyle;fontSize=12;html=1;endArrow=ERoneToMany;rounded=0;" edge="1" parent="1" source="4a63a70a29bb4ada-22" target="4cd4486c729dc68b-1">
          <mxGeometry width="100" height="100" relative="1" as="geometry">
            <mxPoint x="460" y="300" as="sourcePoint" />
            <mxPoint x="560" y="200" as="targetPoint" />
          </mxGeometry>
        </mxCell>
        <mxCell id="glO0-1FQmoA_M5R7XoPx-5" value="" style="endArrow=none;html=1;rounded=0;" edge="1" parent="1" source="4a63a70a29bb4ada-22" target="4a63a70a29bb4ada-19">
          <mxGeometry relative="1" as="geometry">
            <mxPoint x="430" y="250" as="sourcePoint" />
            <mxPoint x="590" y="250" as="targetPoint" />
          </mxGeometry>
        </mxCell>
      </root>
    </mxGraphModel>
  </diagram>
  <diagram id="cdb5e136-1861-7ef1-5e76-c57f7e18aa8d" name="ERD Data Structure - Habit Tracker App">
    <mxGraphModel dx="1194" dy="647" grid="1" gridSize="10" guides="1" tooltips="1" connect="1" arrows="1" fold="1" page="1" pageScale="1" pageWidth="1100" pageHeight="850" math="0" shadow="0">
      <root>
        <mxCell id="0" />
        <mxCell id="1" parent="0" />
        <mxCell id="5ecfb9fce94ea102-2" style="edgeStyle=orthogonalEdgeStyle;rounded=0;html=1;exitX=0.5;exitY=0;entryX=1;entryY=0.5;startArrow=none;startFill=0;endArrow=none;endFill=0;jettySize=auto;orthogonalLoop=1;strokeColor=none;fontSize=13;dashed=1;" parent="1" edge="1">
          <mxGeometry relative="1" as="geometry">
            <mxPoint x="633" y="174" as="sourcePoint" />
            <mxPoint x="589" y="108" as="targetPoint" />
          </mxGeometry>
        </mxCell>
        <mxCell id="cAF0UeO17F_ER3z0SDu5-5" value="Artykuły" style="swimlane;fontStyle=0;childLayout=stackLayout;horizontal=1;startSize=30;horizontalStack=0;resizeParent=1;resizeParentMax=0;resizeLast=0;collapsible=1;marginBottom=0;whiteSpace=wrap;html=1;" vertex="1" parent="1">
          <mxGeometry x="40" y="60" width="140" height="120" as="geometry" />
        </mxCell>
        <mxCell id="cAF0UeO17F_ER3z0SDu5-6" value="IDZamowienia, integer" style="text;strokeColor=none;fillColor=none;align=left;verticalAlign=middle;spacingLeft=4;spacingRight=4;overflow=hidden;points=[[0,0.5],[1,0.5]];portConstraint=eastwest;rotatable=0;whiteSpace=wrap;html=1;" vertex="1" parent="cAF0UeO17F_ER3z0SDu5-5">
          <mxGeometry y="30" width="140" height="30" as="geometry" />
        </mxCell>
        <mxCell id="cAF0UeO17F_ER3z0SDu5-7" value="IDPudelka, varchar" style="text;strokeColor=none;fillColor=none;align=left;verticalAlign=middle;spacingLeft=4;spacingRight=4;overflow=hidden;points=[[0,0.5],[1,0.5]];portConstraint=eastwest;rotatable=0;whiteSpace=wrap;html=1;" vertex="1" parent="cAF0UeO17F_ER3z0SDu5-5">
          <mxGeometry y="60" width="140" height="30" as="geometry" />
        </mxCell>
        <mxCell id="cAF0UeO17F_ER3z0SDu5-8" value="Sztuk, integer" style="text;strokeColor=none;fillColor=none;align=left;verticalAlign=middle;spacingLeft=4;spacingRight=4;overflow=hidden;points=[[0,0.5],[1,0.5]];portConstraint=eastwest;rotatable=0;whiteSpace=wrap;html=1;" vertex="1" parent="cAF0UeO17F_ER3z0SDu5-5">
          <mxGeometry y="90" width="140" height="30" as="geometry" />
        </mxCell>
        <mxCell id="cAF0UeO17F_ER3z0SDu5-10" value="Czekoladki" style="swimlane;fontStyle=0;childLayout=stackLayout;horizontal=1;startSize=30;horizontalStack=0;resizeParent=1;resizeParentMax=0;resizeLast=0;collapsible=1;marginBottom=0;whiteSpace=wrap;html=1;" vertex="1" parent="1">
          <mxGeometry x="500" y="390" width="140" height="270" as="geometry" />
        </mxCell>
        <mxCell id="cAF0UeO17F_ER3z0SDu5-11" value="IDCzekoladki, varchar" style="text;strokeColor=none;fillColor=none;align=left;verticalAlign=middle;spacingLeft=4;spacingRight=4;overflow=hidden;points=[[0,0.5],[1,0.5]];portConstraint=eastwest;rotatable=0;whiteSpace=wrap;html=1;" vertex="1" parent="cAF0UeO17F_ER3z0SDu5-10">
          <mxGeometry y="30" width="140" height="30" as="geometry" />
        </mxCell>
        <mxCell id="cAF0UeO17F_ER3z0SDu5-12" value="Nazwa, varchar" style="text;strokeColor=none;fillColor=none;align=left;verticalAlign=middle;spacingLeft=4;spacingRight=4;overflow=hidden;points=[[0,0.5],[1,0.5]];portConstraint=eastwest;rotatable=0;whiteSpace=wrap;html=1;" vertex="1" parent="cAF0UeO17F_ER3z0SDu5-10">
          <mxGeometry y="60" width="140" height="30" as="geometry" />
        </mxCell>
        <mxCell id="cAF0UeO17F_ER3z0SDu5-13" value="RodzajCzekolady, varchar" style="text;strokeColor=none;fillColor=none;align=left;verticalAlign=middle;spacingLeft=4;spacingRight=4;overflow=hidden;points=[[0,0.5],[1,0.5]];portConstraint=eastwest;rotatable=0;whiteSpace=wrap;html=1;" vertex="1" parent="cAF0UeO17F_ER3z0SDu5-10">
          <mxGeometry y="90" width="140" height="30" as="geometry" />
        </mxCell>
        <mxCell id="cAF0UeO17F_ER3z0SDu5-14" value="RodzajOrzechow, varchar" style="text;strokeColor=none;fillColor=none;align=left;verticalAlign=middle;spacingLeft=4;spacingRight=4;overflow=hidden;points=[[0,0.5],[1,0.5]];portConstraint=eastwest;rotatable=0;whiteSpace=wrap;html=1;" vertex="1" parent="cAF0UeO17F_ER3z0SDu5-10">
          <mxGeometry y="120" width="140" height="30" as="geometry" />
        </mxCell>
        <mxCell id="cAF0UeO17F_ER3z0SDu5-15" value="RodzajNadzienia, varchar" style="text;strokeColor=none;fillColor=none;align=left;verticalAlign=middle;spacingLeft=4;spacingRight=4;overflow=hidden;points=[[0,0.5],[1,0.5]];portConstraint=eastwest;rotatable=0;whiteSpace=wrap;html=1;" vertex="1" parent="cAF0UeO17F_ER3z0SDu5-10">
          <mxGeometry y="150" width="140" height="30" as="geometry" />
        </mxCell>
        <mxCell id="cAF0UeO17F_ER3z0SDu5-16" value="Opis, varchar" style="text;strokeColor=none;fillColor=none;align=left;verticalAlign=middle;spacingLeft=4;spacingRight=4;overflow=hidden;points=[[0,0.5],[1,0.5]];portConstraint=eastwest;rotatable=0;whiteSpace=wrap;html=1;" vertex="1" parent="cAF0UeO17F_ER3z0SDu5-10">
          <mxGeometry y="180" width="140" height="30" as="geometry" />
        </mxCell>
        <mxCell id="cAF0UeO17F_ER3z0SDu5-17" value="Koszt, float" style="text;strokeColor=none;fillColor=none;align=left;verticalAlign=middle;spacingLeft=4;spacingRight=4;overflow=hidden;points=[[0,0.5],[1,0.5]];portConstraint=eastwest;rotatable=0;whiteSpace=wrap;html=1;" vertex="1" parent="cAF0UeO17F_ER3z0SDu5-10">
          <mxGeometry y="210" width="140" height="30" as="geometry" />
        </mxCell>
        <mxCell id="cAF0UeO17F_ER3z0SDu5-18" value="Masa, integer" style="text;strokeColor=none;fillColor=none;align=left;verticalAlign=middle;spacingLeft=4;spacingRight=4;overflow=hidden;points=[[0,0.5],[1,0.5]];portConstraint=eastwest;rotatable=0;whiteSpace=wrap;html=1;" vertex="1" parent="cAF0UeO17F_ER3z0SDu5-10">
          <mxGeometry y="240" width="140" height="30" as="geometry" />
        </mxCell>
        <mxCell id="cAF0UeO17F_ER3z0SDu5-19" value="Klienci" style="swimlane;fontStyle=0;childLayout=stackLayout;horizontal=1;startSize=30;horizontalStack=0;resizeParent=1;resizeParentMax=0;resizeLast=0;collapsible=1;marginBottom=0;whiteSpace=wrap;html=1;" vertex="1" parent="1">
          <mxGeometry x="30" y="380" width="140" height="210" as="geometry" />
        </mxCell>
        <mxCell id="cAF0UeO17F_ER3z0SDu5-20" value="IDKlienta, integer" style="text;strokeColor=none;fillColor=none;align=left;verticalAlign=middle;spacingLeft=4;spacingRight=4;overflow=hidden;points=[[0,0.5],[1,0.5]];portConstraint=eastwest;rotatable=0;whiteSpace=wrap;html=1;" vertex="1" parent="cAF0UeO17F_ER3z0SDu5-19">
          <mxGeometry y="30" width="140" height="30" as="geometry" />
        </mxCell>
        <mxCell id="cAF0UeO17F_ER3z0SDu5-21" value="Nazwa, varchar" style="text;strokeColor=none;fillColor=none;align=left;verticalAlign=middle;spacingLeft=4;spacingRight=4;overflow=hidden;points=[[0,0.5],[1,0.5]];portConstraint=eastwest;rotatable=0;whiteSpace=wrap;html=1;" vertex="1" parent="cAF0UeO17F_ER3z0SDu5-19">
          <mxGeometry y="60" width="140" height="30" as="geometry" />
        </mxCell>
        <mxCell id="cAF0UeO17F_ER3z0SDu5-22" value="Ulica, varchar" style="text;strokeColor=none;fillColor=none;align=left;verticalAlign=middle;spacingLeft=4;spacingRight=4;overflow=hidden;points=[[0,0.5],[1,0.5]];portConstraint=eastwest;rotatable=0;whiteSpace=wrap;html=1;" vertex="1" parent="cAF0UeO17F_ER3z0SDu5-19">
          <mxGeometry y="90" width="140" height="30" as="geometry" />
        </mxCell>
        <mxCell id="cAF0UeO17F_ER3z0SDu5-23" value="Miejscowość, varchar" style="text;strokeColor=none;fillColor=none;align=left;verticalAlign=middle;spacingLeft=4;spacingRight=4;overflow=hidden;points=[[0,0.5],[1,0.5]];portConstraint=eastwest;rotatable=0;whiteSpace=wrap;html=1;" vertex="1" parent="cAF0UeO17F_ER3z0SDu5-19">
          <mxGeometry y="120" width="140" height="30" as="geometry" />
        </mxCell>
        <mxCell id="cAF0UeO17F_ER3z0SDu5-24" value="Kod, varchar" style="text;strokeColor=none;fillColor=none;align=left;verticalAlign=middle;spacingLeft=4;spacingRight=4;overflow=hidden;points=[[0,0.5],[1,0.5]];portConstraint=eastwest;rotatable=0;whiteSpace=wrap;html=1;" vertex="1" parent="cAF0UeO17F_ER3z0SDu5-19">
          <mxGeometry y="150" width="140" height="30" as="geometry" />
        </mxCell>
        <mxCell id="cAF0UeO17F_ER3z0SDu5-25" value="Telefon, integer" style="text;strokeColor=none;fillColor=none;align=left;verticalAlign=middle;spacingLeft=4;spacingRight=4;overflow=hidden;points=[[0,0.5],[1,0.5]];portConstraint=eastwest;rotatable=0;whiteSpace=wrap;html=1;" vertex="1" parent="cAF0UeO17F_ER3z0SDu5-19">
          <mxGeometry y="180" width="140" height="30" as="geometry" />
        </mxCell>
        <mxCell id="cAF0UeO17F_ER3z0SDu5-26" value="Pudelka" style="swimlane;fontStyle=0;childLayout=stackLayout;horizontal=1;startSize=30;horizontalStack=0;resizeParent=1;resizeParentMax=0;resizeLast=0;collapsible=1;marginBottom=0;whiteSpace=wrap;html=1;" vertex="1" parent="1">
          <mxGeometry x="590" y="30" width="140" height="180" as="geometry" />
        </mxCell>
        <mxCell id="cAF0UeO17F_ER3z0SDu5-27" value="IDPudelka, varchar" style="text;strokeColor=none;fillColor=none;align=left;verticalAlign=middle;spacingLeft=4;spacingRight=4;overflow=hidden;points=[[0,0.5],[1,0.5]];portConstraint=eastwest;rotatable=0;whiteSpace=wrap;html=1;" vertex="1" parent="cAF0UeO17F_ER3z0SDu5-26">
          <mxGeometry y="30" width="140" height="30" as="geometry" />
        </mxCell>
        <mxCell id="cAF0UeO17F_ER3z0SDu5-28" value="Nazwa, varchar" style="text;strokeColor=none;fillColor=none;align=left;verticalAlign=middle;spacingLeft=4;spacingRight=4;overflow=hidden;points=[[0,0.5],[1,0.5]];portConstraint=eastwest;rotatable=0;whiteSpace=wrap;html=1;" vertex="1" parent="cAF0UeO17F_ER3z0SDu5-26">
          <mxGeometry y="60" width="140" height="30" as="geometry" />
        </mxCell>
        <mxCell id="cAF0UeO17F_ER3z0SDu5-29" value="Opis, varchar" style="text;strokeColor=none;fillColor=none;align=left;verticalAlign=middle;spacingLeft=4;spacingRight=4;overflow=hidden;points=[[0,0.5],[1,0.5]];portConstraint=eastwest;rotatable=0;whiteSpace=wrap;html=1;" vertex="1" parent="cAF0UeO17F_ER3z0SDu5-26">
          <mxGeometry y="90" width="140" height="30" as="geometry" />
        </mxCell>
        <mxCell id="cAF0UeO17F_ER3z0SDu5-30" value="Cena, float" style="text;strokeColor=none;fillColor=none;align=left;verticalAlign=middle;spacingLeft=4;spacingRight=4;overflow=hidden;points=[[0,0.5],[1,0.5]];portConstraint=eastwest;rotatable=0;whiteSpace=wrap;html=1;" vertex="1" parent="cAF0UeO17F_ER3z0SDu5-26">
          <mxGeometry y="120" width="140" height="30" as="geometry" />
        </mxCell>
        <mxCell id="cAF0UeO17F_ER3z0SDu5-31" value="Stan, integer" style="text;strokeColor=none;fillColor=none;align=left;verticalAlign=middle;spacingLeft=4;spacingRight=4;overflow=hidden;points=[[0,0.5],[1,0.5]];portConstraint=eastwest;rotatable=0;whiteSpace=wrap;html=1;" vertex="1" parent="cAF0UeO17F_ER3z0SDu5-26">
          <mxGeometry y="150" width="140" height="30" as="geometry" />
        </mxCell>
        <mxCell id="cAF0UeO17F_ER3z0SDu5-32" value="Zamówienia" style="swimlane;fontStyle=0;childLayout=stackLayout;horizontal=1;startSize=30;horizontalStack=0;resizeParent=1;resizeParentMax=0;resizeLast=0;collapsible=1;marginBottom=0;whiteSpace=wrap;html=1;" vertex="1" parent="1">
          <mxGeometry x="290" y="270" width="140" height="120" as="geometry" />
        </mxCell>
        <mxCell id="cAF0UeO17F_ER3z0SDu5-33" value="IDZamowienia, integer" style="text;strokeColor=none;fillColor=none;align=left;verticalAlign=middle;spacingLeft=4;spacingRight=4;overflow=hidden;points=[[0,0.5],[1,0.5]];portConstraint=eastwest;rotatable=0;whiteSpace=wrap;html=1;" vertex="1" parent="cAF0UeO17F_ER3z0SDu5-32">
          <mxGeometry y="30" width="140" height="30" as="geometry" />
        </mxCell>
        <mxCell id="cAF0UeO17F_ER3z0SDu5-34" value="IDKlienta, integer" style="text;strokeColor=none;fillColor=none;align=left;verticalAlign=middle;spacingLeft=4;spacingRight=4;overflow=hidden;points=[[0,0.5],[1,0.5]];portConstraint=eastwest;rotatable=0;whiteSpace=wrap;html=1;" vertex="1" parent="cAF0UeO17F_ER3z0SDu5-32">
          <mxGeometry y="60" width="140" height="30" as="geometry" />
        </mxCell>
        <mxCell id="cAF0UeO17F_ER3z0SDu5-35" value="DataRealizacji, datetime" style="text;strokeColor=none;fillColor=none;align=left;verticalAlign=middle;spacingLeft=4;spacingRight=4;overflow=hidden;points=[[0,0.5],[1,0.5]];portConstraint=eastwest;rotatable=0;whiteSpace=wrap;html=1;" vertex="1" parent="cAF0UeO17F_ER3z0SDu5-32">
          <mxGeometry y="90" width="140" height="30" as="geometry" />
        </mxCell>
        <mxCell id="cAF0UeO17F_ER3z0SDu5-36" value="Zawartość" style="swimlane;fontStyle=0;childLayout=stackLayout;horizontal=1;startSize=30;horizontalStack=0;resizeParent=1;resizeParentMax=0;resizeLast=0;collapsible=1;marginBottom=0;whiteSpace=wrap;html=1;" vertex="1" parent="1">
          <mxGeometry x="770" y="380" width="140" height="120" as="geometry" />
        </mxCell>
        <mxCell id="cAF0UeO17F_ER3z0SDu5-37" value="IDPudelka, varchar" style="text;strokeColor=none;fillColor=none;align=left;verticalAlign=middle;spacingLeft=4;spacingRight=4;overflow=hidden;points=[[0,0.5],[1,0.5]];portConstraint=eastwest;rotatable=0;whiteSpace=wrap;html=1;" vertex="1" parent="cAF0UeO17F_ER3z0SDu5-36">
          <mxGeometry y="30" width="140" height="30" as="geometry" />
        </mxCell>
        <mxCell id="cAF0UeO17F_ER3z0SDu5-38" value="IDCzekoladki, varchar" style="text;strokeColor=none;fillColor=none;align=left;verticalAlign=middle;spacingLeft=4;spacingRight=4;overflow=hidden;points=[[0,0.5],[1,0.5]];portConstraint=eastwest;rotatable=0;whiteSpace=wrap;html=1;" vertex="1" parent="cAF0UeO17F_ER3z0SDu5-36">
          <mxGeometry y="60" width="140" height="30" as="geometry" />
        </mxCell>
        <mxCell id="cAF0UeO17F_ER3z0SDu5-39" value="Sztuk, integer" style="text;strokeColor=none;fillColor=none;align=left;verticalAlign=middle;spacingLeft=4;spacingRight=4;overflow=hidden;points=[[0,0.5],[1,0.5]];portConstraint=eastwest;rotatable=0;whiteSpace=wrap;html=1;" vertex="1" parent="cAF0UeO17F_ER3z0SDu5-36">
          <mxGeometry y="90" width="140" height="30" as="geometry" />
        </mxCell>
        <mxCell id="cAF0UeO17F_ER3z0SDu5-44" value="" style="edgeStyle=entityRelationEdgeStyle;fontSize=12;html=1;endArrow=ERoneToMany;rounded=0;" edge="1" parent="1" source="cAF0UeO17F_ER3z0SDu5-19" target="cAF0UeO17F_ER3z0SDu5-32">
          <mxGeometry width="100" height="100" relative="1" as="geometry">
            <mxPoint x="179.99999999999997" y="439.95000000000005" as="sourcePoint" />
            <mxPoint x="329.96" y="370" as="targetPoint" />
            <Array as="points">
              <mxPoint x="349.96" y="705" />
            </Array>
          </mxGeometry>
        </mxCell>
        <mxCell id="cAF0UeO17F_ER3z0SDu5-45" value="" style="edgeStyle=entityRelationEdgeStyle;fontSize=12;html=1;endArrow=ERoneToMany;rounded=0;" edge="1" parent="1" source="cAF0UeO17F_ER3z0SDu5-36" target="cAF0UeO17F_ER3z0SDu5-10">
          <mxGeometry width="100" height="100" relative="1" as="geometry">
            <mxPoint x="420" y="340" as="sourcePoint" />
            <mxPoint x="520" y="240" as="targetPoint" />
          </mxGeometry>
        </mxCell>
        <mxCell id="cAF0UeO17F_ER3z0SDu5-46" value="" style="edgeStyle=entityRelationEdgeStyle;fontSize=12;html=1;endArrow=ERoneToMany;rounded=0;" edge="1" parent="1" source="cAF0UeO17F_ER3z0SDu5-36" target="cAF0UeO17F_ER3z0SDu5-26">
          <mxGeometry width="100" height="100" relative="1" as="geometry">
            <mxPoint x="420" y="340" as="sourcePoint" />
            <mxPoint x="520" y="240" as="targetPoint" />
          </mxGeometry>
        </mxCell>
        <mxCell id="XxI0kEaawTw2alGwXapm-2" value="" style="edgeStyle=entityRelationEdgeStyle;fontSize=12;html=1;endArrow=ERoneToMany;rounded=0;" edge="1" parent="1" source="cAF0UeO17F_ER3z0SDu5-26" target="cAF0UeO17F_ER3z0SDu5-5">
          <mxGeometry width="100" height="100" relative="1" as="geometry">
            <mxPoint x="400" y="350" as="sourcePoint" />
            <mxPoint x="500" y="250" as="targetPoint" />
            <Array as="points">
              <mxPoint x="440" y="190" />
            </Array>
          </mxGeometry>
        </mxCell>
        <mxCell id="XxI0kEaawTw2alGwXapm-3" value="" style="edgeStyle=entityRelationEdgeStyle;fontSize=12;html=1;endArrow=ERoneToMany;rounded=0;" edge="1" parent="1" source="cAF0UeO17F_ER3z0SDu5-32" target="cAF0UeO17F_ER3z0SDu5-5">
          <mxGeometry width="100" height="100" relative="1" as="geometry">
            <mxPoint x="410" y="360" as="sourcePoint" />
            <mxPoint x="510" y="260" as="targetPoint" />
          </mxGeometry>
        </mxCell>
      </root>
    </mxGraphModel>
  </diagram>
</mxfile>
